<svg width="64" height="64" viewBox="0 0 64 64" fill="none" xmlns="http://www.w3.org/2000/svg">
  <!-- Versión simplificada para favicon/icono -->
  
  <!-- Ala izquierda - Rojo -->
  <path d="M32 16 L12 28 Q10 32 12 36 L24 44 Q28 46 31 44 L32 32 Z" 
        fill="#DC2626"/>
  
  <!-- Ala derecha - Amarillo -->
  <path d="M32 16 L52 28 Q54 32 52 36 L40 44 Q36 46 33 44 L32 32 Z" 
        fill="#F59E0B"/>
  
  <!-- Cuerpo - Azul -->
  <ellipse cx="32" cy="28" rx="4" ry="8" fill="#2563EB"/>
  
  <!-- Cabeza -->
  <circle cx="32" cy="19" r="5" fill="#2563EB"/>
  
  <!-- Pico -->
  <path d="M32 19 L37 21 L32 23 Z" fill="#F59E0B"/>
  
  <!-- Ojo -->
  <circle cx="33.5" cy="18" r="1" fill="white"/>
  
  <!-- Cola -->
  <path d="M31 36 L29 48 L31 46 Z" fill="#DC2626" opacity="0.7"/>
  <path d="M32 36 L32 50 L32 48 Z" fill="#F59E0B" opacity="0.7"/>
  <path d="M33 36 L35 48 L33 46 Z" fill="#2563EB" opacity="0.7"/>
</svg>